<svg width="63" height="62" viewBox="0 0 63 62" fill="none" xmlns="http://www.w3.org/2000/svg">
<g clip-path="url(#clip0_20_25)">
<path d="M60.0476 38.7433V40.7824H62.0868V38.7433H60.0476ZM2.95236 10.1957V8.15656H0.913239V10.1957H2.95236ZM2.95236 50.978H0.913239V53.0171H2.95236V50.978ZM33.5391 38.7433C33.5391 42.529 35.043 46.1596 37.7198 48.8364C40.3967 51.5133 44.0273 53.0171 47.8129 53.0171V48.9389C45.1089 48.9389 42.5156 47.8647 40.6036 45.9527C38.6915 44.0406 37.6174 41.4474 37.6174 38.7433H33.5391ZM47.8129 24.4695C44.0273 24.4695 40.3967 25.9733 37.7198 28.6502C35.043 31.3271 33.5391 34.9577 33.5391 38.7433H37.6174C37.6174 36.0393 38.6915 33.446 40.6036 31.5339C42.5156 29.6219 45.1089 28.5477 47.8129 28.5477V24.4695ZM62.0868 38.7433C62.0868 34.9577 60.5829 31.3271 57.9061 28.6502C55.2292 25.9733 51.5986 24.4695 47.8129 24.4695V28.5477C50.517 28.5477 53.1103 29.6219 55.0223 31.5339C56.9344 33.446 58.0085 36.0393 58.0085 38.7433H62.0868ZM56.0795 44.7139C55.1353 46.0231 53.8933 47.089 52.4559 47.8237C51.0186 48.5583 49.4271 48.9406 47.8129 48.9389V53.0171C50.072 53.0186 52.2991 52.4832 54.3107 51.4551C56.3223 50.4269 58.0608 48.9355 59.3829 47.1037L56.0795 44.7139ZM2.95236 12.2348H13.1479V8.15656H2.95236V12.2348ZM13.1479 28.5477H2.95236V32.626H13.1479V28.5477ZM4.99147 30.5868V10.1957H0.913239V30.5868H4.99147ZM21.3044 20.3913C21.3044 22.5545 20.4451 24.6291 18.9154 26.1588C17.3858 27.6884 15.3112 28.5477 13.1479 28.5477V32.626C16.3928 32.626 19.5047 31.337 21.7992 29.0425C24.0936 26.7481 25.3826 23.6361 25.3826 20.3913H21.3044ZM13.1479 12.2348C15.3112 12.2348 17.3858 13.0941 18.9154 14.6238C20.4451 16.1534 21.3044 18.228 21.3044 20.3913H25.3826C25.3826 17.1464 24.0936 14.0345 21.7992 11.74C19.5047 9.44557 16.3928 8.15656 13.1479 8.15656V12.2348ZM2.95236 32.626H17.2262V28.5477H2.95236V32.626ZM17.2262 48.9389H2.95236V53.0171H17.2262V48.9389ZM4.99147 50.978V30.5868H0.913239V50.978H4.99147ZM25.3826 40.7824C25.3826 42.9457 24.5233 45.0203 22.9937 46.5499C21.464 48.0796 19.3894 48.9389 17.2262 48.9389V53.0171C20.471 53.0171 23.583 51.7281 25.8774 49.4337C28.1719 47.1392 29.4609 44.0273 29.4609 40.7824H25.3826ZM17.2262 32.626C19.3894 32.626 21.464 33.4853 22.9937 35.0149C24.5233 36.5446 25.3826 38.6192 25.3826 40.7824H29.4609C29.4609 37.5376 28.1719 34.4256 25.8774 32.1312C23.583 29.8367 20.471 28.5477 17.2262 28.5477V32.626ZM35.5782 40.7824H60.0476V36.7042H35.5782V40.7824ZM37.6174 16.313H58.0085V12.2348H37.6174V16.313Z" fill="#0F524E"/>
</g>
<defs>
<clipPath id="clip0_20_25">
<rect width="61.1735" height="61.1735" fill="white" transform="translate(0.913239)"/>
</clipPath>
</defs>
</svg>
