<svg width="62" height="62" viewBox="0 0 62 62" fill="none" xmlns="http://www.w3.org/2000/svg">
<path d="M41.6088 56.1445V48.8292C41.7044 47.6138 41.5402 46.3919 41.1271 45.2449C40.714 44.0978 40.0615 43.0519 39.2129 42.1765C47.2164 41.2844 55.6277 38.2512 55.6277 24.3343C55.6271 20.7756 54.2582 17.3533 51.8044 14.7759C52.9663 11.6624 52.8842 8.22103 51.575 5.16656C51.575 5.16656 48.5673 4.27445 41.6088 8.93893C35.7668 7.35561 29.6086 7.35561 23.7665 8.93893C16.808 4.27445 13.8003 5.16656 13.8003 5.16656C12.4912 8.22103 12.409 11.6624 13.5709 14.7759C11.0988 17.3725 9.72854 20.8256 9.7476 24.4107C9.7476 38.2258 18.159 41.2589 26.1625 42.253C25.3239 43.1196 24.6772 44.153 24.2644 45.286C23.8516 46.419 23.6819 47.6263 23.7665 48.8292V56.1445" stroke="#0F524E" stroke-width="3.82335" stroke-linecap="round" stroke-linejoin="round"/>
<path d="M23.7665 51.0467C16.1199 53.5268 9.74762 51.0467 5.92427 43.4" stroke="#0F524E" stroke-width="3.82335" stroke-linecap="round" stroke-linejoin="round"/>
</svg>
