<svg width="78" height="78" viewBox="0 0 78 78" fill="none" xmlns="http://www.w3.org/2000/svg">
<path d="M60.6328 38.1804L45.432 32.5802L39.8196 17.3672C39.3902 16.2026 38.6141 15.1977 37.5958 14.4879C36.5776 13.7781 35.3662 13.3975 34.125 13.3975C32.8838 13.3975 31.6724 13.7781 30.6542 14.4879C29.6359 15.1977 28.8598 16.2026 28.4304 17.3672L22.8302 32.5802L7.6172 38.1804C6.45262 38.6098 5.44769 39.3859 4.73788 40.4042C4.02808 41.4224 3.64752 42.6338 3.64752 43.875C3.64752 45.1162 4.02808 46.3276 4.73788 47.3458C5.44769 48.3641 6.45262 49.1402 7.6172 49.5696L22.8181 55.1698L28.4304 70.3828C28.8598 71.5474 29.6359 72.5523 30.6542 73.2621C31.6724 73.9719 32.8838 74.3525 34.125 74.3525C35.3662 74.3525 36.5776 73.9719 37.5958 73.2621C38.6141 72.5523 39.3902 71.5474 39.8196 70.3828L45.4198 55.182L60.6328 49.5696C61.7974 49.1402 62.8023 48.3641 63.5121 47.3458C64.2219 46.3276 64.6025 45.1162 64.6025 43.875C64.6025 42.6338 64.2219 41.4224 63.5121 40.4042C62.8023 39.3859 61.7974 38.6098 60.6328 38.1804ZM42.3516 48.5093C41.5276 48.8124 40.7794 49.2909 40.1586 49.9117C39.5379 50.5324 39.0594 51.2807 38.7563 52.1046L34.125 64.6791L29.4907 52.1016C29.1876 51.2785 28.7094 50.5311 28.0892 49.9108C27.469 49.2906 26.7215 48.8124 25.8984 48.5093L13.3209 43.875L25.8984 39.2407C26.7215 38.9376 27.469 38.4594 28.0892 37.8392C28.7094 37.2189 29.1876 36.4715 29.4907 35.6484L34.125 23.0709L38.7593 35.6484C39.0624 36.4724 39.5409 37.2206 40.1617 37.8414C40.7825 38.4622 41.5307 38.9407 42.3546 39.2438L54.9291 43.875L42.3516 48.5093ZM42.6563 12.1875C42.6563 11.2178 43.0415 10.2878 43.7272 9.60214C44.4128 8.91646 45.3428 8.53125 46.3125 8.53125H49.9688V4.875C49.9688 3.9053 50.354 2.97532 51.0397 2.28964C51.7253 1.60396 52.6553 1.21875 53.625 1.21875C54.5947 1.21875 55.5247 1.60396 56.2104 2.28964C56.896 2.97532 57.2813 3.9053 57.2813 4.875V8.53125H60.9375C61.9072 8.53125 62.8372 8.91646 63.5229 9.60214C64.2085 10.2878 64.5938 11.2178 64.5938 12.1875C64.5938 13.1572 64.2085 14.0872 63.5229 14.7729C62.8372 15.4585 61.9072 15.8438 60.9375 15.8438H57.2813V19.5C57.2813 20.4697 56.896 21.3997 56.2104 22.0854C55.5247 22.771 54.5947 23.1562 53.625 23.1562C52.6553 23.1562 51.7253 22.771 51.0397 22.0854C50.354 21.3997 49.9688 20.4697 49.9688 19.5V15.8438H46.3125C45.3428 15.8438 44.4128 15.4585 43.7272 14.7729C43.0415 14.0872 42.6563 13.1572 42.6563 12.1875ZM76.7813 26.8125C76.7813 27.7822 76.396 28.7122 75.7104 29.3979C75.0247 30.0835 74.0947 30.4687 73.125 30.4688H71.9063V31.6875C71.9063 32.6572 71.521 33.5872 70.8354 34.2729C70.1497 34.9585 69.2197 35.3437 68.25 35.3438C67.2803 35.3437 66.3503 34.9585 65.6647 34.2729C64.979 33.5872 64.5938 32.6572 64.5938 31.6875V30.4688H63.375C62.4053 30.4687 61.4753 30.0835 60.7897 29.3979C60.104 28.7122 59.7188 27.7822 59.7188 26.8125C59.7188 25.8428 60.104 24.9128 60.7897 24.2271C61.4753 23.5415 62.4053 23.1563 63.375 23.1562H64.5938V21.9375C64.5938 20.9678 64.979 20.0378 65.6647 19.3521C66.3503 18.6665 67.2803 18.2813 68.25 18.2812C69.2197 18.2812 70.1497 18.6665 70.8354 19.3521C71.521 20.0378 71.9063 20.9678 71.9063 21.9375V23.1562H73.125C74.0947 23.1563 75.0247 23.5415 75.7104 24.2271C76.396 24.9128 76.7813 25.8428 76.7813 26.8125Z" fill="#793296"/>
</svg>
