<svg width="62" height="62" viewBox="0 0 62 62" fill="none" xmlns="http://www.w3.org/2000/svg">
<path d="M30.5893 24.342C32.9266 21.9537 35.97 20.3912 39.5104 20.3912C43.2285 20.3912 46.7943 21.8682 49.4233 24.4972C52.0524 27.1263 53.5294 30.6921 53.5294 34.4101V53.5268H48.4316V34.4101C48.4316 32.0441 47.4917 29.775 45.8186 28.1019C44.1456 26.4289 41.8765 25.489 39.5104 25.489C37.1444 25.489 34.8753 26.4289 33.2022 28.1019C31.5292 29.775 30.5893 32.0441 30.5893 34.4101V53.5268H25.4915V21.6656H30.5893V24.342ZM12.747 16.5678C11.733 16.5678 10.7605 16.165 10.0435 15.448C9.32649 14.731 8.92368 13.7585 8.92368 12.7445C8.92368 11.7305 9.32649 10.758 10.0435 10.041C10.7605 9.32396 11.733 8.92114 12.747 8.92114C13.761 8.92114 14.7335 9.32396 15.4505 10.041C16.1676 10.758 16.5704 11.7305 16.5704 12.7445C16.5704 13.7585 16.1676 14.731 15.4505 15.448C14.7335 16.165 13.761 16.5678 12.747 16.5678ZM10.1981 21.6656H15.2959V53.5268H10.1981V21.6656Z" fill="#0F524E"/>
</svg>
